<svg width="1440" height="1024" viewBox="0 0 1440 1024" fill="none" xmlns="http://www.w3.org/2000/svg">
<rect width="1440" height="1024" fill="#1D1B3D"/>
<path opacity="0.1" d="M1113.82 513.517C1113.83 526.658 1112.25 539.751 1109.09 552.507C1108.03 556.805 1106.8 561.014 1105.39 565.134C1103.68 570.219 1101.68 575.207 1099.43 580.077C1098.29 582.54 1097.09 584.955 1095.82 587.32C1095.85 600.796 1093.07 614.129 1087.69 626.478C1077.95 648.634 1060.58 666.549 1038.75 676.957C1025.1 683.477 1010.18 686.906 995.063 686.999H475.712C452.605 687.049 429.897 680.971 409.897 669.385L409.589 669.211C406.74 667.542 403.963 665.775 401.257 663.909C395.168 659.698 389.448 654.977 384.158 649.796C376.997 642.791 370.688 634.964 365.36 626.478C352.847 606.587 346.218 583.553 346.242 560.046C333.57 537.785 326.18 511.12 326.18 482.466C326.18 446.314 337.923 413.336 357.215 388.371C361.237 383.155 365.643 378.247 370.396 373.689C375.085 369.178 380.125 365.048 385.468 361.337C389.744 358.365 394.212 355.681 398.843 353.303C400.775 352.319 402.715 351.388 404.687 350.525C406.419 349.755 408.171 349.038 409.943 348.362C412.07 347.554 414.223 346.811 416.403 346.133C418.583 345.455 420.734 344.861 422.856 344.352C425.977 343.589 429.151 342.969 432.379 342.491C435.054 342.096 437.729 341.821 440.403 341.614C442.53 341.453 444.677 341.366 446.836 341.339H448.007C450.387 341.339 452.755 341.433 455.102 341.594C455.349 341.098 455.617 340.596 455.864 340.108C456.8 338.32 457.77 336.539 458.746 334.799C458.744 334.783 458.744 334.767 458.746 334.752C458.913 334.444 459.081 334.143 459.255 333.848C460.044 332.422 460.866 331.009 461.709 329.61C462.097 328.941 462.478 328.311 462.872 327.682C462.956 327.526 463.047 327.374 463.146 327.227C463.548 326.557 463.956 325.888 464.37 325.218C466.434 321.916 468.581 318.671 470.81 315.484L471.378 314.667C471.726 314.172 472.047 313.69 472.435 313.194C473.358 311.902 474.307 310.604 475.264 309.332C475.932 308.421 476.601 307.517 477.323 306.654C479.062 304.422 480.845 302.19 482.673 299.959C484.501 297.727 486.4 295.525 488.37 293.351C488.638 293.05 488.905 292.755 489.186 292.461L492.042 289.341C492.182 289.194 492.302 289.06 492.436 288.926C492.777 288.558 493.105 288.189 493.473 287.834C495.004 286.208 496.575 284.614 498.154 283.028C506.185 275.019 514.742 267.555 523.765 260.687C524.12 260.406 524.481 260.138 524.835 259.87C526.534 258.592 528.259 257.326 529.985 256.081C539.474 249.265 549.394 243.071 559.682 237.536C560.391 237.128 561.113 236.746 561.842 236.371C571.065 231.486 580.551 227.115 590.256 223.276C595.545 221.181 600.955 219.213 606.399 217.412C610.023 216.22 613.661 215.089 617.345 214.024C623.105 212.364 628.905 210.875 634.745 209.559C651.951 205.694 669.455 203.306 687.066 202.422C692.415 202.15 697.825 202.009 703.295 202C729.69 201.965 755.981 205.295 781.535 211.909C781.799 212.308 782.161 212.634 782.585 212.856C783.01 213.077 783.484 213.186 783.963 213.174H786.209C787.186 213.442 788.155 213.71 789.132 213.991C794.584 215.562 799.958 217.278 805.254 219.139L806.592 219.621C819.664 224.275 832.382 229.868 844.648 236.358C855.705 242.194 866.352 248.779 876.513 256.068C878.077 257.192 879.62 258.326 881.14 259.469C882.986 258.286 884.863 257.152 886.771 256.068C894.139 251.866 901.966 248.526 910.096 246.112C927.093 241.077 945.078 240.372 962.416 244.064C984.651 248.784 1004.78 260.5 1021.04 277.163C1027.65 283.981 1033.55 291.47 1038.62 299.51C1038.98 300.086 1039.35 300.668 1039.71 301.258C1044.06 308.373 1047.81 315.847 1050.9 323.598C1051.01 323.886 1051.13 324.154 1051.23 324.435C1054.08 331.693 1056.39 339.157 1058.12 346.762C1058.2 347.151 1058.29 347.532 1058.37 347.92C1059.99 355.281 1061.09 362.746 1061.66 370.261C1061.66 370.529 1061.66 370.803 1061.71 371.085C1061.99 374.972 1062.14 378.9 1062.14 382.867C1062.14 386.416 1062.02 389.937 1061.8 393.432C1061.8 393.813 1061.75 394.208 1061.71 394.603C1061.65 395.614 1061.57 396.612 1061.48 397.629C1066.59 401.754 1071.37 406.269 1075.78 411.133C1077.72 413.262 1079.61 415.471 1081.43 417.761C1086.99 424.73 1091.87 432.21 1096.01 440.101C1107.32 461.471 1113.82 486.61 1113.82 513.517Z" fill="#6C63FF"/>
<path opacity="0.1" d="M1009.25 675.614C1009.25 679.766 994.949 683.656 969.994 687H497.965C476.963 687.044 456.324 681.526 438.146 671.007L437.867 670.849C445.039 668.235 457.985 665.797 475.604 663.597L476.394 663.5C484.295 662.533 493.127 661.615 502.778 660.746C503.021 660.746 503.27 660.71 503.514 660.679C511.172 659.998 519.318 659.36 527.953 658.764C528.226 658.764 528.493 658.716 528.767 658.704C532.098 658.465 535.497 658.238 538.966 658.023L540.303 657.938C565.556 656.369 594.262 655.117 625.392 654.291H625.429C629.789 654.169 634.195 654.062 638.648 653.968C643.6 653.851 648.612 653.747 653.685 653.658C657.556 653.573 661.477 653.512 665.409 653.452H665.5C683.241 653.184 701.572 653.05 720.316 653.05C766.666 653.05 810.475 653.895 849.294 655.415H849.403C855.372 655.646 861.231 655.901 866.944 656.163L871.806 656.394C878.253 656.702 884.533 657.032 890.647 657.385C962.548 661.475 1009.25 668.119 1009.25 675.614Z" fill="#6C63FF"/>
<g opacity="0.2">
<path opacity="0.2" d="M775.533 650.26C775.514 650.916 775.439 651.569 775.308 652.212C771.078 651.539 766.824 650.931 762.545 650.388C762.545 650.218 762.545 650.042 762.545 649.865C762.584 648.043 763.109 646.263 764.064 644.711C765.316 642.729 767.219 641.489 769.316 641.556C771.412 641.623 773.23 642.978 774.354 645.027C775.205 646.636 775.611 648.442 775.533 650.26V650.26Z" fill="#3F3D56"/>
<path opacity="0.2" d="M775.882 639.873C776.031 635.172 773.241 631.269 769.651 631.156C766.061 631.042 763.031 634.761 762.882 639.462C762.734 644.163 765.523 648.066 769.113 648.18C772.703 648.293 775.734 644.574 775.882 639.873Z" fill="#3F3D56"/>
<path opacity="0.2" d="M776.214 629.466C776.362 624.765 773.573 620.862 769.983 620.749C766.393 620.635 763.362 624.354 763.214 629.055C763.065 633.756 765.855 637.659 769.445 637.773C773.035 637.886 776.065 634.167 776.214 629.466Z" fill="#3F3D56"/>
<path opacity="0.2" d="M776.539 619.059C776.688 614.358 773.898 610.455 770.308 610.342C766.718 610.228 763.688 613.947 763.539 618.648C763.391 623.349 766.181 627.252 769.77 627.366C773.36 627.479 776.391 623.76 776.539 619.059Z" fill="#3F3D56"/>
<path opacity="0.2" d="M776.865 608.652C777.013 603.951 774.224 600.048 770.634 599.935C767.044 599.821 764.013 603.54 763.865 608.241C763.716 612.942 766.506 616.845 770.096 616.959C773.686 617.072 776.716 613.353 776.865 608.652Z" fill="#3F3D56"/>
<path opacity="0.2" d="M748.244 536.444C747.388 535.285 746.616 534.066 745.934 532.797L763.11 530.529L744.621 530.086C742.971 526.171 742.137 521.962 742.169 517.714C742.202 513.467 743.1 509.27 744.81 505.382L769.194 519.029L746.858 501.498C749.111 497.853 752.092 494.712 755.613 492.271C759.135 489.83 763.122 488.141 767.325 487.31C771.528 486.479 775.858 486.524 780.043 487.442C784.229 488.36 788.18 490.131 791.65 492.645C795.12 495.159 798.034 498.361 800.211 502.052C802.389 505.743 803.781 509.843 804.303 514.096C804.824 518.35 804.463 522.665 803.242 526.773C802.021 530.88 799.967 534.692 797.207 537.97C798.538 539.772 799.669 541.715 800.58 543.763L778.037 554.583L801.941 547.391C803.447 552.359 803.689 557.624 802.647 562.709C801.605 567.794 799.311 572.539 795.973 576.514C799.443 581.224 801.519 586.815 801.962 592.648C802.405 598.482 801.197 604.322 798.477 609.501C795.758 614.681 791.636 618.99 786.582 621.937C781.529 624.884 775.748 626.349 769.902 626.164C764.055 625.98 758.379 624.154 753.521 620.894C748.663 617.635 744.821 613.075 742.433 607.734C740.044 602.394 739.207 596.489 740.017 590.695C740.826 584.901 743.25 579.452 747.01 574.97C742.864 569.342 740.729 562.484 740.95 555.497C741.17 548.509 743.733 541.799 748.225 536.444H748.244Z" fill="#6C63FF"/>
<path opacity="0.1" d="M803.266 557.464C803.054 564.455 800.483 571.169 795.973 576.514C799.443 581.224 801.519 586.815 801.962 592.648C802.405 598.482 801.197 604.322 798.477 609.501C795.758 614.681 791.635 618.99 786.582 621.937C781.529 624.884 775.748 626.349 769.902 626.164C764.055 625.98 758.379 624.154 753.521 620.894C748.663 617.635 744.821 613.075 742.433 607.734C740.044 602.394 739.207 596.489 740.017 590.695C740.826 584.901 743.25 579.452 747.01 574.97C743.017 569.542 803.376 553.969 803.266 557.464Z" fill="black"/>
</g>
<g opacity="0.2">
<path opacity="0.2" d="M683.15 650.26C683.131 650.916 683.055 651.569 682.925 652.212C678.695 651.539 674.441 650.931 670.162 650.388C670.162 650.218 670.162 650.042 670.162 649.865C670.201 648.043 670.726 646.263 671.681 644.711C672.933 642.729 674.836 641.489 676.932 641.556C679.029 641.623 680.847 642.978 681.971 645.027C682.821 646.636 683.228 648.442 683.15 650.26V650.26Z" fill="#3F3D56"/>
<path opacity="0.2" d="M683.493 639.876C683.641 635.175 680.851 631.272 677.262 631.158C673.672 631.045 670.641 634.764 670.493 639.465C670.344 644.166 673.134 648.069 676.724 648.182C680.313 648.296 683.344 644.577 683.493 639.876Z" fill="#3F3D56"/>
<path opacity="0.2" d="M683.824 629.469C683.973 624.768 681.183 620.865 677.593 620.751C674.003 620.638 670.973 624.357 670.824 629.058C670.676 633.759 673.465 637.662 677.055 637.775C680.645 637.889 683.676 634.17 683.824 629.469Z" fill="#3F3D56"/>
<path opacity="0.2" d="M684.15 619.062C684.298 614.361 681.509 610.458 677.919 610.344C674.329 610.231 671.298 613.95 671.15 618.651C671.001 623.352 673.791 627.255 677.381 627.368C680.971 627.482 684.001 623.763 684.15 619.062Z" fill="#3F3D56"/>
<path opacity="0.2" d="M684.475 608.655C684.624 603.954 681.834 600.051 678.244 599.937C674.654 599.824 671.624 603.543 671.475 608.244C671.327 612.945 674.116 616.848 677.706 616.961C681.296 617.075 684.327 613.356 684.475 608.655Z" fill="#3F3D56"/>
<path opacity="0.2" d="M655.861 536.444C655.005 535.285 654.233 534.066 653.551 532.797L670.727 530.529L652.238 530.086C650.588 526.171 649.754 521.962 649.786 517.714C649.819 513.467 650.717 509.27 652.427 505.382L676.811 519.029L654.475 501.498C656.728 497.853 659.709 494.712 663.23 492.271C666.752 489.83 670.739 488.141 674.942 487.31C679.145 486.479 683.475 486.524 687.66 487.442C691.845 488.36 695.797 490.131 699.267 492.645C702.737 495.159 705.651 498.361 707.828 502.052C710.005 505.743 711.398 509.843 711.92 514.096C712.441 518.35 712.08 522.665 710.859 526.773C709.638 530.88 707.584 534.692 704.824 537.97C706.155 539.772 707.286 541.715 708.197 543.763L685.654 554.583L709.558 547.391C711.064 552.359 711.306 557.624 710.264 562.709C709.222 567.794 706.928 572.539 703.59 576.514C707.06 581.224 709.136 586.815 709.579 592.648C710.022 598.482 708.814 604.322 706.094 609.501C703.375 614.681 699.252 618.99 694.199 621.937C689.146 624.884 683.365 626.349 677.519 626.164C671.672 625.98 665.996 624.154 661.138 620.894C656.28 617.635 652.438 613.075 650.05 607.734C647.661 602.394 646.824 596.489 647.634 590.695C648.443 584.901 650.867 579.452 654.627 574.97C650.481 569.342 648.346 562.484 648.567 555.497C648.787 548.509 651.35 541.799 655.842 536.444H655.861Z" fill="#6C63FF"/>
<path opacity="0.1" d="M710.883 557.464C710.671 564.455 708.1 571.169 703.59 576.514C707.06 581.224 709.136 586.815 709.579 592.648C710.022 598.482 708.814 604.322 706.094 609.501C703.375 614.681 699.252 618.99 694.199 621.937C689.146 624.884 683.365 626.349 677.519 626.164C671.672 625.98 665.996 624.154 661.138 620.894C656.28 617.635 652.438 613.075 650.05 607.734C647.661 602.394 646.824 596.489 647.634 590.695C648.443 584.901 650.867 579.452 654.627 574.97C650.634 569.542 710.993 553.969 710.883 557.464Z" fill="black"/>
</g>
<g opacity="0.2">
<path opacity="0.2" d="M935.502 656.91C935.455 658.152 935.307 659.389 935.058 660.606C926.914 659.305 918.711 658.142 910.449 657.117C910.449 656.789 910.449 656.455 910.449 656.114C910.526 652.604 911.537 649.177 913.379 646.188C915.81 642.376 919.456 639.988 923.486 640.109C927.516 640.231 931.022 642.851 933.21 646.796C934.86 649.903 935.651 653.395 935.502 656.91V656.91Z" fill="#3F3D56"/>
<path opacity="0.2" d="M936.163 636.897C936.449 627.844 931.076 620.328 924.161 620.11C917.246 619.891 911.409 627.053 911.123 636.106C910.837 645.159 916.21 652.675 923.125 652.894C930.04 653.112 935.877 645.95 936.163 636.897Z" fill="#3F3D56"/>
<path opacity="0.2" d="M936.795 616.862C937.081 607.809 931.707 600.293 924.793 600.074C917.878 599.856 912.041 607.017 911.755 616.071C911.468 625.124 916.842 632.64 923.757 632.858C930.672 633.077 936.509 625.915 936.795 616.862Z" fill="#3F3D56"/>
<path opacity="0.2" d="M937.433 596.827C937.719 587.774 932.345 580.257 925.43 580.039C918.516 579.82 912.678 586.982 912.392 596.035C912.106 605.088 917.48 612.604 924.395 612.823C931.309 613.041 937.147 605.88 937.433 596.827Z" fill="#3F3D56"/>
<path opacity="0.2" d="M937.352 575.879C937.623 566.822 932.235 559.311 925.317 559.103C918.399 558.896 912.571 566.07 912.299 575.128C912.027 584.185 917.415 591.696 924.333 591.904C931.252 592.111 937.08 584.937 937.352 575.879Z" fill="#3F3D56"/>
<path opacity="0.2" d="M882.959 437.8C881.319 435.568 879.835 433.226 878.516 430.791L911.58 426.426L875.994 425.569C872.815 418.035 871.207 409.931 871.268 401.753C871.328 393.576 873.056 385.497 876.346 378.01L923.298 404.276L880.303 370.527C884.65 363.527 890.392 357.497 897.172 352.814C903.951 348.131 911.622 344.894 919.707 343.305C927.792 341.717 936.118 341.811 944.165 343.582C952.211 345.352 959.808 348.762 966.479 353.597C973.151 358.432 978.756 364.59 982.944 371.687C987.132 378.784 989.813 386.667 990.822 394.845C991.83 403.024 991.143 411.323 988.804 419.224C986.465 427.126 982.524 434.461 977.226 440.772C979.787 444.246 981.965 447.985 983.723 451.926L940.322 472.77L986.337 458.911C989.237 468.463 989.709 478.588 987.711 488.368C985.712 498.149 981.307 507.277 974.892 514.925C981.572 523.992 985.566 534.755 986.418 545.985C987.27 557.214 984.945 568.457 979.709 578.427C974.473 588.398 966.537 596.693 956.809 602.365C947.081 608.037 935.954 610.857 924.699 610.502C913.444 610.147 902.516 606.632 893.165 600.358C883.814 594.085 876.416 585.306 871.819 575.025C867.221 564.745 865.609 553.378 867.166 542.224C868.723 531.071 873.387 520.58 880.625 511.953C872.647 501.119 868.541 487.918 868.964 474.469C869.387 461.021 874.316 448.105 882.959 437.793V437.8Z" fill="#6C63FF"/>
<path opacity="0.1" d="M988.896 478.259C988.497 491.71 983.572 504.634 974.917 514.938C981.597 524.004 985.591 534.767 986.442 545.997C987.294 557.226 984.969 568.469 979.733 578.439C974.497 588.41 966.561 596.705 956.833 602.377C947.106 608.049 935.978 610.869 924.723 610.514C913.468 610.16 902.541 606.644 893.189 600.371C883.838 594.097 876.44 585.318 871.843 575.037C867.245 564.757 865.633 553.39 867.19 542.237C868.748 531.083 873.412 520.593 880.649 511.965C872.906 501.504 989.108 471.53 988.896 478.259Z" fill="black"/>
</g>
<path d="M457.991 657.98L464.366 657.962H473.355L484.721 473.305L597.276 285.456L592.384 280.205V266.904L470.657 468.953L457.991 657.98Z" fill="#F1C0C0"/>
<path opacity="0.1" d="M465.047 657.962H473.355L484.721 473.305L597.276 285.456L592.384 280.204L476.285 470.49L465.047 657.962Z" fill="black"/>
<path d="M439.204 659.518L730.849 681.839L731.098 681.857L1013.35 664.497L1013.56 664.484V652.564L702.557 646.856L443.088 646.607H441.191L440.985 647.944L439.204 659.518Z" fill="#F1C0C0"/>
<path opacity="0.1" d="M439.204 659.518L730.849 681.839L731.098 681.857L1013.35 664.497L1013.56 664.266V652.813H1013.31L730.849 662.248L443.088 646.607H443.045L442.535 646.941L440.985 647.944L439.204 659.518Z" fill="black"/>
<path opacity="0.1" d="M439.204 659.518L730.849 681.839V662.248L442.535 646.942L440.985 647.944L439.204 659.518Z" fill="black"/>
<path d="M592.347 279.955L720.924 417.977L716.949 660.758L727.871 662.077L728.053 662.102H738.975L740.282 428.402L981.043 508.835L985.103 652.048L993.892 653.032L996.87 653.367L989.978 498.902L738.294 410.531L600.291 267.044H592.347V279.955Z" fill="#F1C0C0"/>
<path opacity="0.1" d="M739.291 423.934L740.282 428.402L981.043 508.835L985.103 652.048L993.892 653.032L986.999 505.856L739.291 423.934Z" fill="black"/>
<path opacity="0.1" d="M592.347 279.955L720.924 417.977L716.949 660.758L727.871 662.077L730.849 410.032L592.347 267.044V279.955Z" fill="black"/>
<path d="M739.759 521.369L828.064 538.76L828.094 538.766L982.757 569.238L989.838 566.399L989.813 565.901L989.351 556.023L739.85 505.601L739.759 521.369Z" fill="#F1C0C0"/>
<path opacity="0.1" d="M828.094 538.766L982.757 569.238L989.838 566.399L989.813 565.901L828.094 538.766Z" fill="black"/>
<path d="M834.008 459.713L836.397 591.219L837.63 658.685L848.504 658.321L855.347 658.09L853.22 461.616L848.504 460.047L847.47 459.713H834.008Z" fill="#F1C0C0"/>
<path opacity="0.1" d="M834.105 459.683V459.713L836.397 591.219L837.63 658.685L848.504 658.321V459.683H834.105Z" fill="black"/>
<path d="M663.689 493.298C664.327 493.644 664.936 494.041 665.512 494.483C666.193 495.079 666.805 495.75 667.336 496.483C669.943 499.856 672.35 503.777 672.095 508.032C672.1 508.651 671.983 509.265 671.75 509.839C671.518 510.413 671.174 510.935 670.739 511.376C669.663 512.293 668.12 512.336 666.71 512.336C665.178 512.336 663.567 512.336 662.242 511.546C660.917 510.756 659.811 509.218 658.243 509.254C658.022 509.291 657.796 509.291 657.575 509.254C657.034 509.078 656.924 508.367 656.572 507.917C655.964 507.108 654.681 507.309 653.727 507.661C652.773 508.014 651.716 508.543 650.773 508.136C650.227 507.847 649.78 507.4 649.491 506.853C647.236 503.206 646.756 498.823 646.331 494.586C646.069 492.009 644.076 483.219 649.576 485.219C652.007 486.094 654.28 487.845 656.493 489.128L663.689 493.298Z" fill="#3F3D56"/>
<path d="M658.255 494.167C658.747 494.52 659.342 494.699 659.947 494.675C660.551 494.651 661.131 494.425 661.592 494.033C662.497 493.215 663.074 492.096 663.215 490.884C663.823 490.696 664.133 491.492 664.521 491.978C665.202 492.805 666.588 492.793 667.208 493.674C667.639 494.282 667.542 495.127 667.846 495.814C668.241 496.702 669.22 497.164 669.888 497.881C670.52 498.665 670.976 499.575 671.225 500.549L672.222 503.54C672.699 504.784 673.006 506.086 673.134 507.412C673.197 508.075 673.127 508.744 672.929 509.379C672.73 510.015 672.408 510.605 671.979 511.114C670.642 512.555 668.448 512.707 666.509 512.664C665.861 512.678 665.215 512.602 664.588 512.439C662.868 511.904 661.768 510.172 661.312 508.427C660.857 506.683 660.905 504.853 660.638 503.066C660.349 501.311 659.838 499.599 659.118 497.972C658.583 496.708 657.113 494.823 657.137 493.48C657.575 493.48 657.891 493.881 658.255 494.167Z" fill="#3F3D56"/>
<path d="M660.437 488.009C660.153 487.146 659.987 486.248 659.945 485.341C659.945 483.517 660.778 481.803 661.616 480.174L654.669 481.116C653.831 481.231 652.895 481.402 652.421 482.101C652.24 482.447 652.146 482.832 652.146 483.222C652.146 483.613 652.24 483.997 652.421 484.344C652.769 485.037 653.046 485.764 653.247 486.514C653.263 487.17 653.338 487.823 653.472 488.465C653.688 488.937 653.991 489.364 654.365 489.723C656.353 491.924 657.842 494.519 659.325 497.091C659.282 497.018 663.513 493.741 663.342 492.671C663.245 492.064 662.024 491.334 661.635 490.751C661.097 489.904 660.693 488.979 660.437 488.009V488.009Z" fill="#BE6F72"/>
<path d="M720 464.26V470.247L617.485 490.246L612.167 493.468H593.818V490.094L694.54 465.755L720 464.26Z" fill="#F1C0C0"/>
<path opacity="0.1" d="M720 470.247L617.485 490.246L612.167 493.468H593.818L695.288 471.749L720 470.247Z" fill="black"/>
<path d="M637.694 634.231C636.552 632.848 634.975 631.892 633.22 631.518C631.466 631.145 629.636 631.377 628.03 632.176C627.686 632.338 627.383 632.575 627.143 632.869C626.535 633.72 626.924 634.894 626.979 635.945C627.119 638.51 625.076 640.595 623.241 642.389C622.256 643.349 621.253 644.376 620.81 645.683C620.366 646.99 620.694 648.65 621.886 649.33C622.405 649.591 622.971 649.748 623.551 649.792C625.494 650.171 627.486 650.227 629.446 649.956C631.385 649.586 633.288 648.485 634.126 646.698C634.288 646.214 634.556 645.771 634.91 645.404C635.98 644.559 637.621 645.549 638.837 644.948C639.839 644.449 639.882 643.665 639.894 642.632C639.931 639.775 639.505 636.541 637.694 634.231Z" fill="#6C63FF"/>
<path d="M652.281 634.122C653.028 636.091 653.132 638.237 653.229 640.34C653.284 641.556 653.32 642.857 652.664 643.884C652.007 644.911 650.725 645.452 649.497 645.707C646.963 646.23 644.027 645.738 642.392 643.726C641.14 642.188 640.879 640.079 641.11 638.085C641.304 636.45 641.718 634.535 640.544 633.374C640.241 633.064 639.846 632.845 639.566 632.511C638.958 631.769 639.055 630.651 639.384 629.739C639.811 628.867 640.131 627.946 640.338 626.997C640.386 626.548 648.567 627.314 649.321 627.684C650.348 628.189 650.19 629.034 650.5 630.055C650.932 631.477 651.758 632.76 652.281 634.122Z" fill="#6C63FF"/>
<path d="M653.782 546.796C655.387 547.835 656.006 549.878 656.256 551.774C656.942 556.971 655.739 562.223 655.648 567.469C655.563 574.818 657.69 582.301 655.873 589.419C654.785 593.674 655.709 598.537 654.688 602.835C654.384 604.111 653.825 605.315 653.533 606.591C652.925 609.357 653.563 612.251 654.42 614.956C654.694 615.685 654.868 616.447 654.937 617.223C654.896 618.417 654.593 619.587 654.049 620.651L650.403 629.277C649.995 630.243 648.391 630.402 647.364 630.529C645.431 630.76 643.273 630.924 641.736 629.727C640.198 628.529 639.827 626.523 639.59 624.651C639.136 621.057 638.933 617.435 638.982 613.813C639.049 612.867 638.965 611.917 638.733 610.998C638.399 609.959 637.664 609.059 637.463 607.959C637.208 606.537 637.931 605.139 638.198 603.704C638.382 602.394 638.361 601.063 638.138 599.759C637.901 597.814 637.627 595.869 637.317 593.936C636.88 591.231 637.506 588.562 637.925 585.851C638.32 583.304 637.816 580.709 637.317 578.18C637.36 580.232 637.104 582.28 636.557 584.259C636.235 585.225 635.773 586.149 635.494 587.134C634.248 591.553 636.904 596.191 636.527 600.768C636.351 602.908 635.512 605.023 635.749 607.132C635.913 608.676 636.63 610.093 637.123 611.564C637.615 613.035 637.87 614.719 637.123 616.092C635.147 619.825 636.624 624.9 638.393 628.73C638.752 629.409 639.065 630.112 639.329 630.833C639.852 632.559 639.414 634.413 639.554 636.213C639.045 636.296 638.523 636.262 638.029 636.114C637.536 635.965 637.082 635.706 636.703 635.356C636.436 635.076 636.217 634.748 635.956 634.456C635.225 633.76 634.361 633.22 633.415 632.869C632.86 632.559 632.227 632.413 631.592 632.45C630.924 632.637 630.323 633.01 629.86 633.526C629.259 634.055 628.621 634.54 627.951 634.979C627.666 635.198 627.333 635.346 626.979 635.41C626.801 635.438 626.619 635.409 626.458 635.327C626.298 635.245 626.167 635.115 626.085 634.954C626.047 634.853 626.025 634.746 626.018 634.638C625.793 632.803 625.673 630.956 625.66 629.107C625.66 625.928 621.855 623.739 621.375 620.597C620.992 618.062 621.703 615.478 621.466 612.925C621.351 611.612 620.986 610.324 621.01 609.011C621.01 608.16 621.205 607.327 621.272 606.482C621.327 605.544 621.313 604.603 621.229 603.668L621.041 600.732C620.858 597.832 620.658 594.872 619.515 592.222C618.16 589.127 617.358 585.819 617.145 582.447C617.023 580.32 617.102 578.192 616.859 576.058C616.64 574.131 616.154 572.217 616.294 570.284C616.409 568.788 616.902 567.342 617.017 565.846C617.254 562.971 616.16 560.175 615.303 557.421C614.446 554.668 613.814 551.616 614.939 548.96C615.099 548.524 615.367 548.135 615.717 547.829C616.148 547.544 616.638 547.361 617.151 547.294C627.579 545.103 638.268 544.422 648.889 545.27C650.621 545.368 652.301 545.892 653.782 546.796Z" fill="#3F3D56"/>
<path d="M619.278 482.234C624.656 482.234 629.015 477.875 629.015 472.496C629.015 467.118 624.656 462.759 619.278 462.759C613.901 462.759 609.541 467.118 609.541 472.496C609.541 477.875 613.901 482.234 619.278 482.234Z" fill="#BE6F72"/>
<path d="M617.394 484.66C617.534 485.216 617.534 485.799 617.394 486.356C617.241 486.745 617.025 487.106 616.756 487.426C615.813 488.642 614.77 489.776 613.638 490.817C614.215 492.106 615.253 493.132 616.549 493.693C617.836 494.24 619.185 494.626 620.567 494.842C621.256 495.023 621.974 495.072 622.682 494.987C623.334 494.823 623.952 494.543 624.505 494.161L629.914 490.921C630.731 490.479 631.486 489.933 632.163 489.298C633.155 488.278 633.717 486.915 633.731 485.493C633.756 485.238 633.687 484.983 633.537 484.775C633.329 484.595 633.069 484.486 632.795 484.465C630.893 484.046 629.392 482.502 628.541 480.751C627.772 478.957 627.274 477.058 627.064 475.116L621.296 478.156C620.439 478.612 619.588 479.067 618.701 479.463C618.135 479.718 616.993 479.931 616.592 480.447C615.826 481.402 617.193 483.511 617.394 484.66Z" fill="#BE6F72"/>
<path d="M613.674 489.049C612.853 489.722 612.212 490.589 611.808 491.571C611.432 492.787 611.808 494.07 612.149 495.273C613.744 500.403 614.963 505.643 615.796 510.95C616.306 514.597 616.494 518.299 616.744 521.989C617.254 529.514 617.996 541.513 618.986 548.99C622.633 549.154 626.189 548.091 629.805 547.701C636.564 546.984 643.523 548.625 650.141 547.094C648.537 540.754 646.932 529.927 645.328 523.594C644.618 521.098 644.126 518.546 643.857 515.965C643.717 514.111 643.802 512.251 643.827 510.385C643.881 506.737 643.681 503.09 643.48 499.443C643.249 495.188 643.018 490.933 642.009 486.769C641.939 486.239 641.69 485.748 641.304 485.377C640.696 484.933 639.906 485.091 639.183 485.189C636.968 485.47 634.727 484.939 632.874 483.693C632.072 483.146 630.996 482.478 630.249 483.085C629.93 483.452 629.719 483.901 629.641 484.38C629.31 485.24 628.8 486.02 628.143 486.666C627.487 487.313 626.701 487.812 625.836 488.131C624.104 488.758 622.29 489.131 620.451 489.237C619.888 489.358 619.302 489.292 618.78 489.049C617.917 488.52 617.856 486.617 616.768 486.49C615.814 486.38 614.319 488.435 613.674 489.049Z" fill="#3F3D56"/>
<path d="M628.054 503.893C625.812 501.747 624.827 498.635 623.192 495.99C622.079 494.212 620.657 492.648 618.992 491.371C618.156 490.818 617.389 490.167 616.707 489.432C616.13 488.72 615.692 487.772 614.817 487.499C614.455 487.42 614.08 487.43 613.723 487.529C613.366 487.627 613.039 487.811 612.769 488.064C612.233 488.574 611.726 489.114 611.249 489.681C608.672 492.349 604.144 492.72 602.102 495.808C601.551 496.463 601.177 497.247 601.014 498.088C600.426 502.582 601.588 507.13 604.26 510.792C604.777 511.641 605.571 512.285 606.509 512.615C606.381 513.749 606.532 514.896 606.946 515.959C608.072 519.806 609.454 523.573 611.085 527.235C610.695 528.667 610.423 530.129 610.271 531.605C609.845 535.319 610.24 539.088 609.839 542.808C609.511 545.847 608.624 548.808 608.593 551.853C608.593 552.339 608.636 552.917 609.055 553.166C609.278 553.281 609.528 553.333 609.778 553.318L617.254 553.543C621.594 553.671 625.976 553.798 630.249 552.996C630.818 552.912 631.369 552.737 631.884 552.479C633.33 551.671 633.81 549.847 634.041 548.224C634.343 546.119 634.463 543.992 634.4 541.866C635.305 544.729 636.381 547.689 639.116 548.929C640.563 549.586 642.216 549.537 643.802 549.495C647.221 549.342 650.629 548.991 654.007 548.443C654.215 548.469 654.426 548.446 654.624 548.375C654.822 548.305 655 548.189 655.145 548.037C655.289 547.885 655.397 547.701 655.458 547.501C655.519 547.3 655.532 547.088 655.496 546.881L655.532 543.562C655.605 536.821 653.934 530.377 653.284 523.666C653.077 521.551 653.095 519.411 652.579 517.339C652.366 516.469 652.056 515.618 651.867 514.743C651.705 513.886 651.604 513.019 651.564 512.147L651.089 505.461C650.865 502.367 650.542 499.382 650.305 496.294C650.175 493.287 649.739 490.302 649.005 487.383C648.476 485.559 647.376 483.493 645.474 483.268C644.459 483.152 643.474 483.596 642.508 483.906C640.132 484.654 637.583 484.643 635.214 483.876C634.482 483.587 633.72 483.383 632.941 483.268C632.549 483.214 632.15 483.266 631.785 483.418C631.42 483.57 631.101 483.816 630.862 484.131C630.627 484.606 630.516 485.133 630.54 485.663C630.255 491.735 629.726 497.99 628.054 503.893Z" fill="#6C63FF"/>
<path d="M618.275 504.075C615.473 501.121 612.599 498.112 608.988 496.234C607.566 495.492 605.949 494.933 604.375 495.212C602.801 495.492 601.336 496.86 601.409 498.458C601.458 499.449 602.06 500.324 602.248 501.297C602.467 502.391 602.151 503.558 602.491 504.616C602.768 505.313 603.181 505.947 603.707 506.482L608.01 511.582C609.833 513.71 611.657 515.868 614.003 517.339C616.349 518.81 619.388 519.497 621.965 518.451C623.798 517.599 625.323 516.199 626.328 514.445C627.398 512.743 628.152 510.883 629.155 509.126C630.715 506.319 632.775 503.821 635.232 501.753C633.968 501.425 632.382 500.963 631.586 499.929C631.359 499.601 631.166 499.251 631.008 498.884L630.024 496.756C629.689 496.739 629.354 496.791 629.04 496.909C628.726 497.027 628.441 497.209 628.2 497.443C627.778 497.931 627.325 498.392 626.845 498.823C625.988 499.467 624.827 499.644 624.049 500.379C623.748 500.695 623.476 501.037 623.235 501.4C622.646 502.174 621.9 502.813 621.044 503.274C620.189 503.735 619.245 504.008 618.275 504.075V504.075Z" fill="#3F3D56"/>
<path d="M635.457 491.365C637.566 487.517 637.469 482.903 638.071 478.557C638.136 477.406 638.54 476.3 639.232 475.378C640.447 474.004 642.593 473.986 644.428 474.162C644.969 474.223 645.644 474.478 645.613 475.019C645.571 475.213 645.476 475.392 645.34 475.536C643.561 477.832 642.515 480.611 642.337 483.511C643.292 484.174 644.769 482.812 645.686 483.511C646.294 484.022 646.015 485.031 645.65 485.76C644.803 487.45 643.93 489.128 643.03 490.793C642.312 492.261 641.376 493.612 640.253 494.799C639.481 495.541 638.575 496.124 637.791 496.854C635.968 498.562 634.868 500.975 632.984 502.64C632.824 502.813 632.609 502.923 632.376 502.95C632.136 502.933 631.91 502.832 631.738 502.665C630.797 501.899 630.016 500.955 629.44 499.887C628.723 498.562 628.833 498.173 629.963 497.237C632.078 495.565 634.138 493.772 635.457 491.365Z" fill="#BE6F72"/>
<path d="M614.75 501.461C615.115 501.686 615.565 501.941 615.966 501.753C616.13 501.654 616.269 501.519 616.373 501.358C617.068 500.431 617.647 499.422 618.099 498.355C618.177 498.204 618.22 498.038 618.227 497.869C618.227 497.48 617.88 497.194 617.558 496.969C615.832 495.869 613.976 494.987 612.033 494.343C610.429 493.735 608.751 493.206 607.05 493.358C606.41 493.401 605.786 493.573 605.215 493.864C604.643 494.154 604.137 494.557 603.725 495.048C602.509 496.61 604.545 497.085 605.822 497.65C608.776 498.993 611.973 499.771 614.75 501.461Z" fill="#6C63FF"/>
<path opacity="0.1" d="M612.836 511.795C612.815 511.934 612.827 512.075 612.872 512.208C612.916 512.341 612.991 512.462 613.091 512.561C613.267 511.698 613.036 510.786 613.218 509.917C613.486 508.61 614.756 507.625 614.866 506.312C612.538 505.856 612.854 510.385 612.836 511.795Z" fill="black"/>
<path opacity="0.2" d="M720 464.26V470.247L695.288 471.749L694.54 465.755L720 464.26Z" fill="black"/>
<path d="M610.514 473.943C612.058 472.685 611.164 470.047 612.21 468.357C612.817 467.433 613.845 466.947 614.853 466.533C616.071 465.963 617.376 465.602 618.713 465.463C619.383 465.399 620.058 465.486 620.689 465.719C621.321 465.952 621.892 466.323 622.36 466.807C622.755 467.257 623.022 467.804 623.393 468.272C623.852 468.818 624.45 469.229 625.125 469.463C625.799 469.696 626.523 469.742 627.222 469.597C628.03 469.415 628.869 468.801 628.814 467.974C628.723 467.471 628.466 467.013 628.085 466.673L626.347 464.746C624.371 462.558 622.177 460.236 619.278 459.689C617.26 459.306 615.194 459.847 613.249 460.497C612.465 460.759 611.584 461.148 611.365 461.944C611.219 462.491 611.438 463.087 611.31 463.64C611.061 464.74 609.651 465.111 608.994 466.035C608.338 466.959 608.539 468.053 608.35 469.074C608.162 470.095 607.615 471.092 607.548 472.15C607.505 472.788 607.827 473.974 608.545 474.205C609.262 474.436 610.07 473.183 610.514 473.943Z" fill="#3F3D56"/>
<path d="M628.225 467.099C627.712 464.424 626.607 461.898 624.991 459.707C623.554 457.659 621.555 456.072 619.236 455.136C618.076 454.683 616.829 454.498 615.588 454.596C614.347 454.694 613.144 455.072 612.07 455.701C610.475 456.84 609.234 458.405 608.49 460.218C606.916 463.609 606.332 467.755 608.162 471.013C608.891 470.126 610.143 470.527 611.249 470.205C612.635 469.81 613.808 468.886 615.127 468.308C619.108 466.552 623.97 467.974 628.225 467.099Z" fill="#FED253"/>
<path opacity="0.1" d="M609.092 466.91C608.952 465.816 608.861 464.546 609.639 463.767C609.677 463.72 609.727 463.682 609.782 463.656C609.838 463.631 609.899 463.619 609.961 463.622C610.015 463.639 610.065 463.668 610.108 463.705C610.151 463.743 610.185 463.789 610.21 463.84C610.659 464.549 611.042 465.298 611.353 466.077C610.9 465.973 610.426 466.007 609.992 466.175C609.559 466.343 609.186 466.637 608.921 467.02" fill="black"/>
<path opacity="0.1" d="M623.296 463.822L623.077 461.652C623.041 461.473 623.056 461.288 623.119 461.117C623.211 460.974 623.352 460.87 623.516 460.825C623.68 460.78 623.855 460.798 624.007 460.874C624.306 461.04 624.552 461.286 624.718 461.585C625.224 462.362 625.644 463.192 625.97 464.059C624.991 463.871 623.984 463.883 623.01 464.096" fill="black"/>
<path opacity="0.1" d="M628.735 551.896V556.856L624.548 557.136H602.522V551.896H628.735Z" fill="black"/>
<path d="M628.735 551.896V557.136H602.522L532.882 469.889V465.767H547.481L628.735 551.896Z" fill="#F1C0C0"/>
<path opacity="0.1" d="M628.735 551.896V557.136H602.522L532.882 469.889V465.767H547.481L628.735 551.896Z" fill="black"/>
<path opacity="0.1" d="M628.735 551.896V557.136H602.522L532.882 469.889V465.767L602.898 551.896H628.735Z" fill="black"/>
<path d="M542.011 639.343C542.056 639.59 542.051 639.843 541.994 640.087C541.938 640.332 541.832 640.562 541.682 640.763C541.533 640.965 541.343 641.133 541.126 641.258C540.908 641.383 540.667 641.461 540.418 641.489C538.729 642.06 536.936 642.626 535.738 643.92C534.541 645.215 534.304 647.616 535.738 648.668C536.471 649.11 537.313 649.34 538.169 649.33C540.923 649.519 543.791 649.482 546.289 648.315C548.076 647.489 549.76 646.078 551.723 646.206C552.738 646.267 553.82 646.741 554.725 646.279C555.631 645.817 555.886 644.528 555.892 643.452C555.915 641.206 555.577 638.971 554.89 636.833C554.798 636.541 550.933 636.316 550.471 636.225L545.785 635.617C544.898 635.502 542.983 634.833 542.284 635.574C541.585 636.316 542.011 638.462 542.011 639.343Z" fill="#6C63FF"/>
<path d="M569.975 624.171C570.173 625.266 570.495 626.334 570.935 627.356C571.585 629.009 572.418 630.766 574.01 631.569C575.457 632.292 577.232 632.031 578.703 631.344C579.316 631.089 579.854 630.681 580.265 630.158C580.739 629.331 580.951 628.379 580.872 627.429C580.872 625.077 580.733 622.645 579.657 620.554C578.733 618.73 577.122 617.162 577.098 615.144L571.561 616.214C571.265 616.242 570.982 616.354 570.747 616.536C570.571 616.721 570.449 616.95 570.394 617.199C569.803 619.473 569.661 621.842 569.975 624.171V624.171Z" fill="#6C63FF"/>
<path d="M503.854 566.424C503.623 568.381 503.72 570.478 504.741 572.168C505.762 573.858 507.914 574.976 509.774 574.302C509.869 574.277 509.959 574.234 510.037 574.175C510.115 574.115 510.181 574.04 510.23 573.955C510.279 573.75 510.251 573.533 510.151 573.347C509.33 571.156 509.397 568.73 510.339 566.588C510.461 566.308 510.722 565.98 511.008 566.089C511.127 566.15 511.223 566.248 511.281 566.369C511.575 566.878 511.723 567.459 511.707 568.047C511.621 568.579 511.604 569.121 511.658 569.658C511.773 570.18 512.333 570.673 512.819 570.448C512.959 570.361 513.081 570.247 513.176 570.113C513.271 569.978 513.338 569.825 513.372 569.664C514.727 565.743 514.113 561.457 513.493 557.354C513.499 557.26 513.483 557.166 513.448 557.078C513.413 556.991 513.359 556.912 513.29 556.848C513.221 556.783 513.138 556.735 513.049 556.706C512.959 556.677 512.864 556.668 512.77 556.68C509.901 556.394 508.333 555.707 506.692 558.376C505.282 560.625 503.854 563.719 503.854 566.424Z" fill="#6C63FF"/>
<path d="M537.391 556.449C536.541 559.986 535.684 563.567 535.629 567.202C535.644 569.466 535.814 571.727 536.139 573.967L536.778 579.231C536.996 581.006 537.209 582.775 537.519 584.532C537.717 585.437 537.825 586.359 537.841 587.286C537.782 588.199 537.637 589.104 537.41 589.991C537.027 591.852 536.814 593.744 536.772 595.644C536.705 598.683 537.081 601.722 537.319 604.762C537.792 610.818 537.721 616.905 537.106 622.949C536.86 624.58 537.214 626.245 538.103 627.636C538.463 628.074 538.76 628.561 538.984 629.082C539.44 630.474 538.376 631.866 538.103 633.295C537.928 634.409 538.202 635.547 538.865 636.458C539.528 637.37 540.526 637.981 541.64 638.158C546.502 638.735 551.498 638.474 555.88 640.699C556.342 639.349 555.333 637.817 555.795 636.444C556.087 635.593 556.889 635.039 557.436 634.322C558.171 633.229 558.537 631.93 558.482 630.614C558.503 628.897 558.198 627.191 557.582 625.587C557.065 624.25 556.324 622.931 556.366 621.496C556.366 620.791 556.616 620.05 556.33 619.399C556.134 619.025 555.868 618.693 555.546 618.42C553.729 616.43 552.613 613.901 552.367 611.217C552.13 608.554 552.216 605.872 552.623 603.23C552.92 600.713 553.321 598.057 554.92 596.094C554.179 590.14 554.614 584.099 556.202 578.314C556.36 577.779 556.61 577.159 557.157 577.031C557.374 577.009 557.593 577.039 557.796 577.119C558 577.2 558.18 577.328 558.324 577.493C559.278 578.387 559.734 579.681 560.147 580.921C560.603 582.265 561.065 583.699 560.718 585.073C560.572 585.681 560.281 586.216 560.11 586.799C559.741 587.972 559.805 589.239 560.293 590.368C560.53 590.78 560.679 591.238 560.73 591.711C560.674 592.117 560.551 592.512 560.366 592.878C560.14 593.597 560.069 594.356 560.156 595.105C560.242 595.854 560.486 596.576 560.87 597.224C561.645 598.515 562.601 599.688 563.709 600.707C563.179 603.04 563.316 605.475 564.104 607.734C564.16 607.836 564.197 607.948 564.21 608.064C564.224 608.179 564.214 608.297 564.183 608.409C564.073 608.64 563.794 608.725 563.575 608.889C562.967 609.388 563.344 610.33 563.751 610.98C564.867 612.765 566.1 614.475 567.44 616.098C568.656 617.551 568.546 620.353 570.358 620.876C571.119 621.041 571.906 621.041 572.667 620.876C574.454 620.603 576.448 620.086 577.323 618.506C577.681 617.855 577.827 617.065 578.386 616.579C578.946 616.092 579.669 616.007 579.979 615.424C580.289 614.84 579.942 614.074 580.046 613.4C580.149 612.725 580.739 612.184 580.927 611.473C581.377 609.831 579.462 608.482 579.201 606.804C578.824 604.373 581.887 602.549 581.76 600.118C581.492 594.835 581.322 589.529 581.049 584.246C580.705 579.515 580.657 574.766 580.903 570.028C581.115 567.08 581.51 563.992 580.429 561.251C578.873 557.385 574.582 555.215 570.431 554.801C566.279 554.388 562.14 555.373 558.026 556.017C551.197 557.07 544.259 557.215 537.391 556.449V556.449Z" fill="#3F3D56"/>
<path d="M549.729 498.349C555.107 498.349 559.466 493.989 559.466 488.611C559.466 483.233 555.107 478.873 549.729 478.873C544.352 478.873 539.993 483.233 539.993 488.611C539.993 493.989 544.352 498.349 549.729 498.349Z" fill="#FBBEBE"/>
<path d="M545.767 500.166C545.436 500.937 544.88 501.589 544.171 502.037C543.463 502.485 542.635 502.708 541.798 502.677C541.445 504.136 542.29 505.607 543.257 506.756C545.263 509.091 547.856 510.849 550.769 511.848C553.681 512.847 556.807 513.051 559.825 512.439C560.999 512.229 562.113 511.764 563.089 511.078C564.404 509.979 565.287 508.45 565.58 506.762C565.86 505.085 565.94 503.381 565.817 501.686C565.852 501.351 565.756 501.016 565.55 500.75C565.307 500.562 565.007 500.463 564.699 500.47C562.645 500.288 560.499 500.209 558.694 499.2C556.889 498.191 555.607 495.911 556.476 494.039C556.336 494.331 552.787 494.471 552.319 494.532C550.854 494.738 549.389 494.969 547.93 495.237C547.229 495.275 546.537 495.406 545.87 495.626C544.989 496.082 545.317 495.857 545.524 496.683C545.834 497.948 546.289 498.853 545.767 500.166Z" fill="#FBBEBE"/>
<path d="M553.176 506.087C551.864 506.102 550.556 505.957 549.28 505.655C547.991 505.354 546.855 504.596 546.083 503.522C545.633 502.841 545.341 501.984 544.624 501.601C543.451 500.993 542.114 502.02 541.178 502.963C540.326 503.892 539.338 504.687 538.248 505.321C536.948 506.008 535.428 506.251 534.201 507.06C533.241 507.784 532.418 508.674 531.769 509.686L523.157 521.417C519.699 526.134 516.69 531.198 513.609 536.176C510.941 540.486 509.543 545.446 507.531 550.096C507.372 550.381 507.306 550.708 507.343 551.033C507.416 551.349 507.798 551.604 508.066 551.422C507.16 552.321 507.956 553.853 507.744 555.117C507.502 556.002 506.998 556.793 506.297 557.385C507.635 557.21 508.993 557.274 510.309 557.573C511.668 557.959 512.951 558.575 514.101 559.397C514.837 559.281 514.77 557.974 515.317 557.488C515.645 557.202 516.131 557.239 516.563 557.154C518.185 556.838 518.83 554.886 520.076 553.786C521.115 552.868 522.586 552.57 523.686 551.707C525.473 550.303 525.856 547.805 526.792 545.732C527.588 543.975 528.84 542.443 529.539 540.644C529.995 539.477 530.214 538.213 530.864 537.137C531.903 535.398 533.86 534.474 535.726 533.642C536.905 533.113 538.157 532.566 539.428 532.651C539.361 535.477 539.002 538.261 539.616 541.021C539.829 541.994 540.126 542.942 540.382 543.908C541.543 548.261 541.816 552.795 541.871 557.281C544.663 556.642 547.515 556.3 550.38 556.26C552.635 556.193 554.883 556.485 557.138 556.443C559.813 556.394 562.456 555.877 565.131 555.695C567.805 555.513 570.601 555.695 572.965 556.911C572.773 553.058 572.881 549.197 573.287 545.361L573.931 539.319C574.077 537.564 574.347 535.821 574.74 534.104C575.092 532.718 575.603 531.38 575.992 530C577.359 525.138 577.11 519.946 576.849 514.883C576.715 512.281 575.712 509.722 574.533 507.406C574.106 506.546 573.619 505.717 573.074 504.926C571.65 502.963 569.751 501.392 567.555 500.361C565.359 499.33 562.938 498.872 560.518 499.03C560.208 499.039 559.904 499.105 559.618 499.224C559.105 499.553 558.704 500.03 558.469 500.592C557.212 502.852 555.387 504.746 553.176 506.087Z" fill="#3F3D56"/>
<path d="M541.166 491.839C541.439 491.231 542.175 491.006 542.624 490.52C543.488 489.596 543.099 488.119 543.232 486.872C543.451 485.049 544.964 483.523 546.697 482.873C548.463 482.306 550.343 482.187 552.167 482.526C553.045 482.59 553.893 482.872 554.634 483.347C554.95 483.578 555.242 483.876 555.54 484.088C556.083 484.417 556.732 484.52 557.35 484.375C557.968 484.231 558.505 483.851 558.846 483.316C556.695 480.727 554.312 477.992 551.042 477.195C549.921 476.966 548.777 476.858 547.633 476.873C546.119 476.843 544.557 476.818 543.159 477.396C541.257 478.18 539.92 479.985 539.233 481.931C538.632 483.902 538.311 485.948 538.279 488.009C538.154 489.384 538.154 490.768 538.279 492.143C538.514 494.02 539.211 495.81 540.309 497.352C540.457 497.591 540.667 497.787 540.917 497.917C543.688 499.133 540.941 492.343 541.166 491.839Z" fill="#3F3D56"/>
<path d="M558.53 481.815C558.196 478.952 556.154 476.587 553.984 474.685C552.235 473.035 550.152 471.781 547.876 471.007C545.584 470.332 542.947 470.478 540.983 471.846C539.403 472.946 538.4 474.697 537.628 476.46C536.614 478.54 536.112 480.833 536.164 483.146C536.316 485.444 537.434 487.772 539.428 488.933C540.145 487.875 541.391 487.328 542.588 486.897C547.807 484.917 553.128 483.22 558.53 481.815V481.815Z" fill="#FED253"/>
<path opacity="0.1" d="M540.096 480.624C540.291 480.624 540.418 480.824 540.515 480.988C541.01 481.759 541.435 482.573 541.786 483.42C541.075 483.572 539.853 483.742 539.5 483.116C539.312 482.8 539.537 480.593 540.096 480.624Z" fill="black"/>
<path opacity="0.1" d="M553.947 479.25C553.802 479.39 553.631 479.104 553.631 478.897V476.539C553.627 476.473 553.642 476.408 553.674 476.35C553.699 476.321 553.73 476.298 553.764 476.281C553.799 476.265 553.836 476.255 553.875 476.253C554.367 476.198 554.774 476.618 555.09 477.019C555.57 477.669 555.987 478.363 556.336 479.092L553.765 479.013" fill="black"/>
<path d="M586.032 518.305C586.592 517.774 587.189 517.285 587.819 516.84C589.503 515.716 591.539 515.272 593.429 514.555C595.319 513.837 597.24 512.676 597.975 510.792C598.343 509.614 598.463 508.372 598.328 507.145C598.345 506.631 598.254 506.119 598.06 505.643C597.829 505.223 597.5 504.864 597.1 504.598C594.535 502.701 591.095 502.549 587.91 502.744C580.889 503.179 574.007 504.898 567.604 507.813C567.266 507.925 566.969 508.137 566.753 508.421C566.629 508.685 566.572 508.975 566.589 509.266C566.476 511.059 566.709 512.856 567.276 514.561C568.115 516.725 569.841 518.469 570.564 520.676C570.892 521.667 571.002 522.718 571.288 523.715C571.522 524.745 572.131 525.65 572.995 526.256C575.396 527.691 577.663 525.764 579.328 524.268L586.032 518.305Z" fill="#3F3D56"/>
<path d="M554.592 526.724L551.51 520.001C551.058 519.069 550.669 518.109 550.343 517.126C549.991 515.953 549.821 514.737 549.492 513.558C548.411 509.631 545.682 506.361 544.351 502.513C544.266 502.165 544.095 501.845 543.852 501.583C543.658 501.445 543.436 501.352 543.202 501.31C542.967 501.268 542.727 501.278 542.497 501.34C540.637 501.662 539.184 503.078 537.483 503.881C536.693 504.245 535.842 504.488 535.052 504.908C534.657 505.095 534.307 505.365 534.026 505.7C533.744 506.034 533.539 506.426 533.423 506.847C533.234 507.777 533.696 508.67 534.085 509.576C535.738 513.308 536.115 517.478 536.188 521.563C536.243 524.311 536.103 527.259 534.48 529.466C531.362 533.721 533.356 539.969 534.523 545.118C534.663 545.726 534.827 546.382 534.924 547.027C535.027 547.833 535.073 548.645 535.064 549.458C535.064 552.188 534.912 555.002 533.769 557.476C534.897 558.076 536.14 558.429 537.416 558.509C540.945 558.959 544.488 559.275 548.046 559.458C549.161 559.562 550.284 559.505 551.383 559.287C552.687 558.935 553.836 558.158 554.65 557.079C555.463 556 555.894 554.681 555.874 553.33C556.069 555.014 556.427 556.844 557.649 558.011C558.871 559.178 560.651 559.354 562.311 559.445C566.993 559.694 571.689 559.562 576.35 559.05C576.648 559.037 576.94 558.969 577.213 558.85C578.113 558.4 578.162 557.16 578.089 556.163C577.955 554.297 577.815 552.431 577.59 550.577C577.4 549.395 577.302 548.2 577.299 547.002C577.391 545.771 577.595 544.55 577.906 543.355C578.721 539.562 579.365 535.69 579.091 531.806C578.983 530.86 578.945 529.907 578.976 528.955C579.134 526.809 580.264 524.767 580.052 522.633C579.444 516.36 578.952 509.923 577.201 503.868C576.885 502.786 576.484 501.625 575.542 501.005C574.326 500.191 572.619 500.616 571.227 500.1C570.574 499.796 569.953 499.427 569.373 498.999C568.114 498.212 566.67 497.767 565.185 497.711C564.067 497.668 562.821 497.917 562.146 498.817C561.834 499.323 561.627 499.888 561.539 500.476C560.657 504.184 559.624 507.85 558.591 511.515L557.6 515.029L554.944 524.463C554.683 525.466 554.859 525.776 554.592 526.724Z" fill="#6C63FF"/>
<path d="M570.133 489.918L628.924 551.707V556.947H602.71L558.53 499.279" fill="#F1C0C0"/>
<path opacity="0.1" d="M570.133 489.918L628.924 551.707V556.947H602.71L558.53 499.279" fill="black"/>
<path opacity="0.1" d="M559.466 498.464L559.655 498.531L603.087 551.707H628.924V556.947H602.71L558.53 499.279L559.466 498.464Z" fill="black"/>
<path d="M566.231 499.765C564.104 500.695 561.739 501.887 561.101 504.124C560.975 504.516 560.948 504.934 561.022 505.339C561.178 505.816 561.474 506.235 561.872 506.54C562.27 506.845 562.752 507.022 563.253 507.047C564.253 507.072 565.249 506.89 566.176 506.513L578.727 502.367C579.067 502.258 579.456 502.093 579.541 501.759C579.563 501.549 579.521 501.337 579.42 501.151C579.031 500.203 578.648 498.264 577.833 497.601C577.165 497.066 575.84 497.255 575.031 497.267C571.92 497.291 568.996 498.55 566.231 499.765Z" fill="#6C63FF"/>
<path d="M577.42 502.859C579.534 502.853 581.637 503.179 583.65 503.826C585.672 504.482 587.463 505.706 588.81 507.351C589.202 507.811 589.481 508.357 589.624 508.944C589.746 509.552 591.727 509.917 591.29 510.33C592.621 510.117 592.305 510.743 593.654 510.731C595.003 510.719 596.462 510.373 597.27 509.297C597.832 508.413 598.082 507.367 597.981 506.324C597.999 505.602 597.862 504.885 597.58 504.221C596.972 502.944 595.575 502.258 594.286 501.668L583.431 496.702C582.801 496.367 582.125 496.127 581.425 495.99C580.836 495.935 580.243 495.949 579.657 496.033L574.74 496.598C575.815 497.294 576.69 498.258 577.28 499.396C577.869 500.533 578.152 501.804 578.101 503.084" fill="#3F3D56"/>
</svg>
